<svg width="17" height="17" viewBox="0 0 17 17" fill="none" xmlns="http://www.w3.org/2000/svg">
<path d="M8.36719 16.3281C9.45573 16.3281 10.4792 16.1198 11.4375 15.7031C12.401 15.2865 13.25 14.7109 13.9844 13.9766C14.7188 13.2422 15.2943 12.3958 15.7109 11.4375C16.1276 10.474 16.3359 9.44792 16.3359 8.35938C16.3359 7.27083 16.1276 6.2474 15.7109 5.28906C15.2943 4.32552 14.7188 3.47656 13.9844 2.74219C13.25 2.00781 12.401 1.43229 11.4375 1.01562C10.474 0.598958 9.44792 0.390625 8.35938 0.390625C7.27083 0.390625 6.24479 0.598958 5.28125 1.01562C4.32292 1.43229 3.47656 2.00781 2.74219 2.74219C2.01302 3.47656 1.4401 4.32552 1.02344 5.28906C0.606771 6.2474 0.398438 7.27083 0.398438 8.35938C0.398438 9.44792 0.606771 10.474 1.02344 11.4375C1.4401 12.3958 2.01562 13.2422 2.75 13.9766C3.48438 14.7109 4.33073 15.2865 5.28906 15.7031C6.2526 16.1198 7.27865 16.3281 8.36719 16.3281ZM8.36719 15C7.44531 15 6.58333 14.8281 5.78125 14.4844C4.97917 14.1406 4.27344 13.6667 3.66406 13.0625C3.0599 12.4531 2.58594 11.7474 2.24219 10.9453C1.90365 10.1432 1.73438 9.28125 1.73438 8.35938C1.73438 7.4375 1.90365 6.57552 2.24219 5.77344C2.58594 4.97135 3.0599 4.26562 3.66406 3.65625C4.26823 3.04688 4.97135 2.57292 5.77344 2.23438C6.57552 1.89062 7.4375 1.71875 8.35938 1.71875C9.28125 1.71875 10.1432 1.89062 10.9453 2.23438C11.7526 2.57292 12.4583 3.04688 13.0625 3.65625C13.6719 4.26562 14.1484 4.97135 14.4922 5.77344C14.8359 6.57552 15.0078 7.4375 15.0078 8.35938C15.0078 9.28125 14.8359 10.1432 14.4922 10.9453C14.1536 11.7474 13.6797 12.4531 13.0703 13.0625C12.4609 13.6667 11.7552 14.1406 10.9531 14.4844C10.151 14.8281 9.28906 15 8.36719 15ZM8.35938 12.8203C8.46354 12.8203 8.54948 12.7865 8.61719 12.7188C8.6901 12.651 8.72656 12.5625 8.72656 12.4531V11.9062C9.33594 11.8438 9.84635 11.6432 10.2578 11.3047C10.6745 10.9609 10.8828 10.4948 10.8828 9.90625C10.8828 9.375 10.7109 8.94792 10.3672 8.625C10.0234 8.30208 9.51302 8.08073 8.83594 7.96094L8.72656 7.9375V5.75781C9.00781 5.8099 9.24219 5.91927 9.42969 6.08594C9.6224 6.2474 9.75781 6.45833 9.83594 6.71875C9.92448 6.97396 10.0833 7.10156 10.3125 7.10156C10.4479 7.10156 10.5573 7.0599 10.6406 6.97656C10.7292 6.88802 10.7734 6.77604 10.7734 6.64062C10.7734 6.59896 10.7682 6.5599 10.7578 6.52344C10.7526 6.48177 10.7448 6.4401 10.7344 6.39844C10.6302 5.97656 10.3932 5.63021 10.0234 5.35938C9.65885 5.08333 9.22656 4.91667 8.72656 4.85938V4.32031C8.72656 4.21094 8.6901 4.1224 8.61719 4.05469C8.54948 3.98698 8.46354 3.95312 8.35938 3.95312C8.11458 3.95312 7.99219 4.07552 7.99219 4.32031V4.85938C7.39844 4.92708 6.91146 5.13542 6.53125 5.48438C6.15104 5.82812 5.96094 6.26562 5.96094 6.79688C5.96094 7.29167 6.1276 7.69271 6.46094 8C6.79427 8.30729 7.28646 8.53646 7.9375 8.6875L7.99219 8.70312V11.0156C7.63802 10.9635 7.35677 10.8464 7.14844 10.6641C6.94531 10.4818 6.8125 10.2604 6.75 10C6.70312 9.86979 6.63802 9.77344 6.55469 9.71094C6.47656 9.64323 6.38021 9.60938 6.26562 9.60938C6.13542 9.60938 6.02604 9.65365 5.9375 9.74219C5.85417 9.82552 5.8125 9.9349 5.8125 10.0703C5.8125 10.112 5.8151 10.1536 5.82031 10.1953C5.83073 10.2318 5.84115 10.2708 5.85156 10.3125C5.96094 10.7656 6.21354 11.1302 6.60938 11.4062C7.00521 11.6771 7.46615 11.8385 7.99219 11.8906V12.4531C7.99219 12.5625 8.02604 12.651 8.09375 12.7188C8.16667 12.7865 8.25521 12.8203 8.35938 12.8203ZM7.99219 7.74219L7.9375 7.72656C7.58854 7.6224 7.33073 7.49219 7.16406 7.33594C7.0026 7.17448 6.92188 6.97917 6.92188 6.75C6.92188 6.51042 7.01562 6.29948 7.20312 6.11719C7.39583 5.9349 7.65885 5.8151 7.99219 5.75781V7.74219ZM8.72656 8.89062L8.89844 8.92969C9.27344 9.03385 9.53646 9.16927 9.6875 9.33594C9.83854 9.5026 9.91406 9.71094 9.91406 9.96094C9.91406 10.237 9.8151 10.4714 9.61719 10.6641C9.42448 10.8516 9.1276 10.9688 8.72656 11.0156V8.89062Z" fill="white"/>
</svg>
