<svg width="17" height="18" viewBox="0 0 17 18" fill="none" xmlns="http://www.w3.org/2000/svg">
<path d="M2.08594 14.2891L8.23438 17.7734C8.45312 17.8984 8.66667 17.9609 8.875 17.9609C9.08854 17.9609 9.30729 17.8984 9.53125 17.7734L15.6719 14.2891C16.0312 14.0807 16.3021 13.8464 16.4844 13.5859C16.6719 13.3203 16.7656 12.9089 16.7656 12.3516V6.16406C16.7656 5.75781 16.6875 5.42188 16.5312 5.15625C16.3802 4.89062 16.1406 4.66146 15.8125 4.46875L10.2812 1.32812C9.8125 1.05729 9.34635 0.921875 8.88281 0.921875C8.41927 0.921875 7.95052 1.05729 7.47656 1.32812L1.95312 4.46875C1.61979 4.66146 1.375 4.89062 1.21875 5.15625C1.06771 5.42188 0.992188 5.75781 0.992188 6.16406V12.3516C0.992188 12.9089 1.08594 13.3203 1.27344 13.5859C1.46094 13.8464 1.73177 14.0807 2.08594 14.2891ZM2.78906 13.2578C2.5599 13.1276 2.40104 12.9922 2.3125 12.8516C2.22396 12.7057 2.17969 12.526 2.17969 12.3125V6.41406L8.26562 9.89062V16.375L2.78906 13.2578ZM14.9766 13.2578L9.49219 16.375V9.89062L15.5781 6.41406V12.3125C15.5781 12.526 15.5339 12.7057 15.4453 12.8516C15.3568 12.9922 15.2005 13.1276 14.9766 13.2578ZM8.88281 8.79688L2.85156 5.38281L5.26562 4L11.2969 7.42969L8.88281 8.79688ZM12.5547 6.71875L6.5 3.29688L8 2.44531C8.59375 2.10677 9.18229 2.10677 9.76562 2.44531L14.9141 5.38281L12.5547 6.71875Z" fill="white"/>
</svg>
