<svg width="17" height="17" viewBox="0 0 17 17" fill="none" xmlns="http://www.w3.org/2000/svg">
<path d="M8.36719 16.3281C9.45573 16.3281 10.4792 16.1198 11.4375 15.7031C12.401 15.2865 13.25 14.7109 13.9844 13.9766C14.7188 13.2422 15.2943 12.3958 15.7109 11.4375C16.1276 10.474 16.3359 9.44792 16.3359 8.35938C16.3359 7.27083 16.1276 6.2474 15.7109 5.28906C15.2943 4.32552 14.7188 3.47656 13.9844 2.74219C13.25 2.00781 12.401 1.43229 11.4375 1.01562C10.474 0.598958 9.44792 0.390625 8.35938 0.390625C7.27083 0.390625 6.24479 0.598958 5.28125 1.01562C4.32292 1.43229 3.47656 2.00781 2.74219 2.74219C2.01302 3.47656 1.4401 4.32552 1.02344 5.28906C0.606771 6.2474 0.398438 7.27083 0.398438 8.35938C0.398438 9.44792 0.606771 10.474 1.02344 11.4375C1.4401 12.3958 2.01562 13.2422 2.75 13.9766C3.48438 14.7109 4.33073 15.2865 5.28906 15.7031C6.2526 16.1198 7.27865 16.3281 8.36719 16.3281ZM8.36719 15C7.44531 15 6.58333 14.8281 5.78125 14.4844C4.97917 14.1406 4.27344 13.6667 3.66406 13.0625C3.0599 12.4531 2.58594 11.7474 2.24219 10.9453C1.90365 10.1432 1.73438 9.28125 1.73438 8.35938C1.73438 7.4375 1.90365 6.57552 2.24219 5.77344C2.58594 4.97135 3.0599 4.26562 3.66406 3.65625C4.26823 3.04688 4.97135 2.57292 5.77344 2.23438C6.57552 1.89062 7.4375 1.71875 8.35938 1.71875C9.28125 1.71875 10.1432 1.89062 10.9453 2.23438C11.7526 2.57292 12.4583 3.04688 13.0625 3.65625C13.6719 4.26562 14.1484 4.97135 14.4922 5.77344C14.8359 6.57552 15.0078 7.4375 15.0078 8.35938C15.0078 9.28125 14.8359 10.1432 14.4922 10.9453C14.1536 11.7474 13.6797 12.4531 13.0703 13.0625C12.4609 13.6667 11.7552 14.1406 10.9531 14.4844C10.151 14.8281 9.28906 15 8.36719 15ZM13.7109 13.5078L13.6875 13.4219C13.5573 13.0365 13.2526 12.6589 12.7734 12.2891C12.2995 11.9193 11.6849 11.6146 10.9297 11.375C10.1797 11.1354 9.32552 11.0156 8.36719 11.0156C7.41406 11.0156 6.5599 11.1354 5.80469 11.375C5.05469 11.6146 4.4401 11.9193 3.96094 12.2891C3.48177 12.6589 3.17708 13.0339 3.04688 13.4141L3.02344 13.5078C3.49219 13.9714 4.04688 14.3672 4.6875 14.6953C5.32812 15.0234 5.97396 15.2734 6.625 15.4453C7.28125 15.6224 7.86198 15.7109 8.36719 15.7109C8.8776 15.7109 9.45833 15.6224 10.1094 15.4453C10.7604 15.2734 11.4036 15.0234 12.0391 14.6953C12.6797 14.3672 13.237 13.9714 13.7109 13.5078ZM8.36719 9.6875C8.86719 9.69271 9.32031 9.56771 9.72656 9.3125C10.1328 9.05208 10.4531 8.69792 10.6875 8.25C10.9271 7.80208 11.0469 7.29948 11.0469 6.74219C11.0469 6.21615 10.9271 5.73438 10.6875 5.29688C10.4479 4.85938 10.125 4.51042 9.71875 4.25C9.31771 3.98438 8.86719 3.85156 8.36719 3.85156C7.86719 3.85156 7.41406 3.98438 7.00781 4.25C6.60156 4.51042 6.27865 4.85938 6.03906 5.29688C5.79948 5.73438 5.68229 6.21615 5.6875 6.74219C5.69271 7.29948 5.8125 7.79948 6.04688 8.24219C6.28646 8.6849 6.60677 9.03646 7.00781 9.29688C7.41406 9.55208 7.86719 9.68229 8.36719 9.6875Z" fill="white"/>
</svg>
